<svg width="40" height="40" viewBox="0 0 40 40" fill="none" xmlns="http://www.w3.org/2000/svg">
<rect width="40" height="40" rx="3.2" fill="#FFF3E0"/>
<path d="M18.75 33.6875V31.1875C16.1458 30.8958 13.9115 29.8177 12.0469 27.9531C10.1823 26.0885 9.10417 23.8542 8.8125 21.25H6.3125V18.75H8.8125C9.10417 16.1458 10.1823 13.9115 12.0469 12.0469C13.9115 10.1823 16.1458 9.10417 18.75 8.8125V6.3125H21.25V8.8125C23.8542 9.10417 26.0885 10.1823 27.9531 12.0469C29.8177 13.9115 30.8958 16.1458 31.1875 18.75H33.6875V21.25H31.1875C30.8958 23.8542 29.8177 26.0885 27.9531 27.9531C26.0885 29.8177 23.8542 30.8958 21.25 31.1875V33.6875H18.75ZM20 28.75C22.4167 28.75 24.4792 27.8958 26.1875 26.1875C27.8958 24.4792 28.75 22.4167 28.75 20C28.75 17.5833 27.8958 15.5208 26.1875 13.8125C24.4792 12.1042 22.4167 11.25 20 11.25C17.5833 11.25 15.5208 12.1042 13.8125 13.8125C12.1042 15.5208 11.25 17.5833 11.25 20C11.25 22.4167 12.1042 24.4792 13.8125 26.1875C15.5208 27.8958 17.5833 28.75 20 28.75ZM20 25C18.625 25 17.4479 24.5104 16.4688 23.5312C15.4896 22.5521 15 21.375 15 20C15 18.625 15.4896 17.4479 16.4688 16.4688C17.4479 15.4896 18.625 15 20 15C21.375 15 22.5521 15.4896 23.5312 16.4688C24.5104 17.4479 25 18.625 25 20C25 21.375 24.5104 22.5521 23.5312 23.5312C22.5521 24.5104 21.375 25 20 25Z" fill="#F57C00"/>
</svg>
