<svg width="80" height="80" viewBox="0 0 80 80" fill="none" xmlns="http://www.w3.org/2000/svg">
<path d="M42.8333 13.0672C42.4612 13.0057 42.0889 12.9564 41.7164 12.9191C41.1444 12.8619 40.5723 12.8333 40 12.8333C34.2604 12.8333 29.3958 14.8137 25.4381 18.7714C21.4726 22.737 19.5 27.8277 19.5 34C19.5 38.079 21.1923 42.6885 24.4964 47.8126C27.806 52.9452 32.8672 58.6306 39.6619 64.8683L40 65.1787L40.3381 64.8683C47.1328 58.6306 52.194 52.9452 55.5035 47.8126C58.8077 42.6885 60.5 38.079 60.5 34C60.5 33.9442 60.4975 33.8887 60.4924 33.8333H66.1501C66.1613 33.8901 66.1667 33.9455 66.1667 34C66.1667 39.4219 64.0107 45.3665 59.6275 51.8448C55.2985 58.243 48.762 65.1871 40 72.6762C31.2379 65.1871 24.7015 58.243 20.3724 51.8448C15.9893 45.3665 13.8333 39.4219 13.8333 34C13.8333 25.7844 16.4706 19.2868 21.714 14.4509C26.9862 9.58844 33.0747 7.16667 40 7.16667C40.5472 7.16667 41.0801 7.18035 41.5987 7.20764C41.9839 7.22791 42.3953 7.27163 42.8333 7.33942V13.0672ZM52.2904 8.16667L56.25 4.20711L62.8964 10.8536L63.25 11.2071L63.6036 10.8536L70.25 4.20711L74.2096 8.16667L67.5631 14.8131L67.2096 15.1667L67.5631 15.5202L74.2096 22.1667L70.25 26.1262L63.6036 19.4798L63.25 19.1262L62.8964 19.4798L56.25 26.1262L52.2904 22.1667L58.9369 15.5202L59.2904 15.1667L58.9369 14.8131L52.2904 8.16667ZM44.3548 37.6881C43.1422 38.9007 41.6997 39.5 40 39.5C38.3003 39.5 36.8578 38.9007 35.6452 37.6881C34.4327 36.4756 33.8333 35.033 33.8333 33.3333C33.8333 31.6337 34.4327 30.1911 35.6452 28.9786C36.8578 27.766 38.3003 27.1667 40 27.1667C41.6997 27.1667 43.1422 27.766 44.3548 28.9786C45.5673 30.1911 46.1667 31.6337 46.1667 33.3333C46.1667 35.033 45.5673 36.4756 44.3548 37.6881Z" fill="#EF6C00" stroke="#EF6C00"/>
</svg>
