<svg width="25" height="25" viewBox="0 0 25 25" fill="none" xmlns="http://www.w3.org/2000/svg">
<path d="M7.29166 21.875C6.71874 21.875 6.22829 21.671 5.8203 21.263C5.41232 20.855 5.20832 20.3646 5.20832 19.7917V6.25H4.16666V4.16667H9.37499V3.125H15.625V4.16667H20.8333V6.25H19.7917V19.7917C19.7917 20.3646 19.5877 20.855 19.1797 21.263C18.7717 21.671 18.2812 21.875 17.7083 21.875H7.29166ZM17.7083 6.25H7.29166V19.7917H17.7083V6.25ZM9.37499 17.7083H11.4583V8.33333H9.37499V17.7083ZM13.5417 17.7083H15.625V13.0208C15.625 11.1903 15.625 10.1639 15.625 8.33333H13.5417V17.7083Z" fill="#F57C00"/>
</svg>
