<svg width="50" height="32" viewBox="0 0 50 32" fill="none" xmlns="http://www.w3.org/2000/svg">
<g id="logo_&#236;&#149;&#132;&#235;&#172;&#180;&#234;&#177;&#176;&#235;&#130;&#152;" filter="url(#filter0_d_670_12)">
<path d="M7.10116 14.1339C6.04518 14.1339 5.07819 13.9629 4.20019 13.6209C3.33405 13.2788 2.58655 12.7934 1.95771 12.1645C1.54244 11.7452 1.18649 11.2763 0.88987 10.7577C0.605111 10.2281 0.38561 9.65433 0.231366 9.03645C0.077122 8.40754 0 7.75105 0 7.06697C0 6.8794 0.00593246 6.73596 0.0177974 6.63666C0.0177974 6.47116 0.0237299 6.31117 0.0355948 6.1567C0.0593246 5.9912 0.0830545 5.83121 0.106784 5.67674C0.213569 5.05887 0.38561 4.47961 0.622909 3.93897C0.872072 3.38729 1.17463 2.89078 1.53058 2.44944C1.89839 2.0081 2.31959 1.61641 2.79419 1.27437C3.38744 0.866131 4.04594 0.551676 4.7697 0.331006C5.49346 0.110335 6.26468 0 7.08336 0H7.10116C7.64695 0 8.169 0.0496508 8.66733 0.148953C9.16566 0.237221 9.63432 0.369623 10.0733 0.54616L7.5461 4.91543C7.49864 4.89336 7.43338 4.88233 7.35032 4.88233C7.33846 4.88233 7.3266 4.88233 7.31473 4.88233C7.31473 4.88233 7.3088 4.88233 7.29693 4.88233C7.04777 4.88233 6.8342 4.9706 6.65623 5.14714C6.49012 5.31264 6.3596 5.57193 6.26468 5.925C6.18163 6.27807 6.1401 6.7139 6.1401 7.23247C6.1401 7.92758 6.22316 8.47926 6.38927 8.8875C6.48418 9.1192 6.60283 9.29574 6.74521 9.41711C6.89946 9.52744 7.07743 9.58261 7.27914 9.58261C7.48084 9.58261 7.65881 9.52193 7.81306 9.40056C7.9673 9.26816 8.09188 9.07507 8.1868 8.8213C8.26986 8.63373 8.32918 8.40754 8.36478 8.14274C8.40037 7.87793 8.41817 7.57451 8.41817 7.23247C8.41817 6.55943 8.34105 6.02982 8.1868 5.64364C8.04442 5.24644 7.83085 5.0037 7.5461 4.91543L8.169 4.41892C8.98769 3.76795 9.59873 3.28799 10.0021 2.97905C10.4055 2.65908 11.0047 2.18464 11.7997 1.55573C12.5709 2.19567 13.1641 2.99008 13.5794 3.93897C13.9947 4.87681 14.2023 5.91948 14.2023 7.06697C14.2023 8.14825 14.0125 9.14679 13.6328 10.0626C13.265 10.9673 12.7311 11.7341 12.031 12.3631C11.8412 12.5396 11.6336 12.7051 11.4081 12.8596C11.1946 13.003 10.9691 13.1409 10.7318 13.2733C10.2098 13.5492 9.64026 13.7588 9.02328 13.9022C8.41817 14.0567 7.77746 14.1339 7.10116 14.1339ZM14.5049 14.4649C14.5049 13.1078 14.5049 11.7562 14.5049 10.4101C14.5049 9.46124 14.5049 8.51236 14.5049 7.56348C14.5049 6.93457 14.5049 6.30566 14.5049 5.67674C14.5049 4.44099 14.5049 3.52521 14.5049 2.9294C14.5049 2.33359 14.5049 1.43436 14.5049 0.231704H20.734C20.734 1.19162 20.734 1.9088 20.734 2.38324C20.734 2.84665 20.734 3.54728 20.734 4.48513C20.734 5.74295 20.734 6.67528 20.734 7.28212C20.734 7.88897 20.734 8.80475 20.734 10.0295C20.734 11.0335 20.734 11.7838 20.734 12.2803C20.734 12.7658 20.734 13.494 20.734 14.4649H14.5049ZM20.5026 10.0295C20.5026 8.94818 20.5026 7.8669 20.5026 6.78561C20.5026 6.21187 20.5026 5.78708 20.5026 5.51124C20.5026 5.22437 20.5026 4.79958 20.5026 4.23687H21.9798V10.0295H20.5026Z" fill="#FAFAFA"/>
<path d="M28.6538 14.3822C28.6538 14.1726 28.6538 13.9629 28.6538 13.7533C28.6538 13.6098 28.6538 13.505 28.6538 13.4388C28.6538 13.3726 28.6538 13.2733 28.6538 13.1409C28.6538 13.1299 28.6538 13.1244 28.6538 13.1244C28.6538 13.1244 28.6479 13.1244 28.636 13.1244C27.9004 13.1244 27.3546 13.1244 26.9986 13.1244C26.6546 13.1244 26.1266 13.1244 25.4147 13.1244C24.2994 13.1244 23.1841 13.1244 22.0688 13.1244V9.48331H43.7816V13.1244C42.8443 13.1244 41.9069 13.1244 40.9696 13.1244C39.7238 13.1244 38.472 13.1244 37.2144 13.1244C37.2025 13.1244 37.1966 13.1299 37.1966 13.1409C37.1966 13.2733 37.1966 13.3726 37.1966 13.4388C37.1966 13.505 37.1966 13.6043 37.1966 13.7367C37.1966 13.836 37.1966 13.9353 37.1966 14.0346C37.1966 14.1119 37.1966 14.167 37.1966 14.2001C37.1966 14.2443 37.1966 14.305 37.1966 14.3822H28.6538ZM28.2623 8.73855C28.547 8.40754 28.7665 8.05447 28.9208 7.67933C29.0869 7.29316 29.2352 6.87388 29.3657 6.42151C29.4369 6.1567 29.4903 6.0243 29.5259 6.0243C31.0683 6.0243 32.2074 6.0243 32.943 6.0243C33.6905 6.0243 34.8117 6.0243 36.3067 6.0243C36.3186 6.0243 36.3245 6.0243 36.3245 6.0243C36.3245 5.7926 36.3245 5.62158 36.3245 5.51124C36.3245 5.38987 36.3245 5.21885 36.3245 4.99818C36.3245 4.81061 36.0575 4.65614 35.5236 4.53478C34.9897 4.41341 34.4083 4.35272 33.7795 4.35272C33.1032 4.35272 32.3794 4.38031 31.6082 4.43547C30.8488 4.49064 30.1607 4.56236 29.5437 4.65063L29.5259 4.60098L29.8106 3.40936L30.1488 2.03568L30.4691 0.628911C31.4302 0.52961 32.504 0.457892 33.6905 0.413757C34.877 0.369623 36.0397 0.35859 37.1788 0.380656C41.1179 0.457891 43.0875 1.2523 43.0875 2.7639C43.0875 3.21627 43.0875 3.55279 43.0875 3.77346C43.0875 3.9831 43.0875 4.30859 43.0875 4.74993V5.77605C43.0875 6.44909 43.0875 6.95112 43.0875 7.28212C43.0875 7.60209 43.0875 8.08757 43.0875 8.73855H28.2623ZM22.7629 8.73855C22.7629 7.82276 22.7629 7.1442 22.7629 6.70286C22.7629 6.26152 22.7629 5.59399 22.7629 4.70028C22.7629 3.77346 22.7629 3.08939 22.7629 2.64804C22.7629 2.19567 22.7629 1.52263 22.7629 0.628911H29.5259C29.5259 1.45642 29.5259 2.0743 29.5259 2.48254C29.5259 2.87975 29.5259 3.48108 29.5259 4.28652C29.5259 5.02577 29.5259 5.58296 29.5259 5.9581C29.5259 6.32221 29.5259 6.69183 29.5259 7.06697C29.5259 7.44211 29.5259 7.9993 29.5259 8.73855H22.7629Z" fill="#FAFAFA"/>
<path d="M6.98289 29.2552C7.05408 28.9794 7.10747 28.7753 7.14307 28.6429C7.17866 28.5105 7.23206 28.3119 7.30325 28.0471C7.43376 27.5726 7.53462 27.1754 7.6058 26.8554C8.00921 25.1563 8.3177 23.8819 8.53127 23.0323C8.66178 22.4917 8.75671 22.089 8.81603 21.8242C8.88722 21.5594 8.98807 21.1622 9.11858 20.6325C9.11858 20.6215 9.11858 20.616 9.11858 20.616C9.11858 20.616 9.11265 20.616 9.10078 20.616C8.5194 20.616 8.08633 20.616 7.80158 20.616C7.51682 20.616 7.08968 20.616 6.52017 20.616C5.84386 20.616 5.3396 20.616 5.00739 20.616C4.67517 20.616 4.17684 20.616 3.5124 20.616V16.0978H16.6825C16.3265 18.1941 16.0536 19.7719 15.8638 20.8311C15.6858 21.8793 15.5078 22.9275 15.3299 23.9757C15.1519 25.0239 14.879 26.6017 14.5112 28.7091C14.4993 28.8304 14.4697 29.0125 14.4222 29.2552H6.98289ZM18.2842 30C18.2842 29.3932 18.2842 28.7918 18.2842 28.196C18.2842 27.6002 18.2842 27.1589 18.2842 26.872C18.2842 26.5851 18.2842 26.1548 18.2842 25.5811C18.2842 25.57 18.2842 25.5645 18.2842 25.5645C18.2842 25.5645 18.2783 25.5645 18.2664 25.5645H16.6469V20.1029H18.2664C18.2783 20.1029 18.2842 20.1029 18.2842 20.1029C18.2842 20.1029 18.2842 20.0974 18.2842 20.0864C18.2842 19.5126 18.2842 19.0879 18.2842 18.812C18.2842 18.5362 18.2842 18.1224 18.2842 17.5707C18.2842 16.9639 18.2842 16.3626 18.2842 15.7668H24.5133C24.5133 18.1721 24.5133 20.5774 24.5133 22.9827C24.5133 25.3218 24.5133 27.6609 24.5133 30H18.2842Z" fill="#FAFAFA"/>
<path d="M25.6702 29.0897C25.6702 27.9422 25.6702 26.8003 25.6702 25.6638V24.5384C25.6702 22.773 25.6702 21.0077 25.6702 19.2423C25.6702 18.5251 25.6702 17.9955 25.6702 17.6535C25.6702 17.3115 25.6702 16.7929 25.6702 16.0978H32.6111C32.6111 17.0246 32.6111 17.7142 32.6111 18.1666C32.6111 18.6079 32.6111 19.2809 32.6111 20.1857C32.6111 21.6311 32.6111 23.0765 32.6111 24.5219C32.6111 24.5329 32.6171 24.5384 32.6289 24.5384C33.7917 24.5384 34.6578 24.5384 35.2274 24.5384C35.7969 24.5384 36.6452 24.5384 37.7724 24.5384C38.247 24.5384 38.7216 24.5384 39.1962 24.5384L38.3063 29.0897C36.4079 29.0897 34.5095 29.0897 32.6111 29.0897H25.6702ZM39.5521 30C39.5521 28.6429 39.5521 27.2913 39.5521 25.9452C39.5521 24.9963 39.5521 24.0474 39.5521 23.0985C39.5521 22.4696 39.5521 21.8407 39.5521 21.2118C39.5521 19.976 39.5521 19.0603 39.5521 18.4645C39.5521 17.8686 39.5521 16.9694 39.5521 15.7668H45.7812C45.7812 16.7267 45.7812 17.4439 45.7812 17.9183C45.7812 18.3817 45.7812 19.0823 45.7812 20.0202C45.7812 21.278 45.7812 22.2103 45.7812 22.8172C45.7812 23.424 45.7812 24.3398 45.7812 25.5645C45.7812 26.5686 45.7812 27.3189 45.7812 27.8154C45.7812 28.3008 45.7812 29.0291 45.7812 30H39.5521ZM45.5499 25.5645C45.5499 24.4832 45.5499 23.402 45.5499 22.3207C45.5499 21.7469 45.5499 21.3221 45.5499 21.0463C45.5499 20.7594 45.5499 20.3346 45.5499 19.7719H47.027V25.5645H45.5499Z" fill="#FAFAFA"/>
</g>
<defs>
<filter id="filter0_d_670_12" x="0" y="0" width="49.027" height="32" filterUnits="userSpaceOnUse" color-interpolation-filters="sRGB">
<feFlood flood-opacity="0" result="BackgroundImageFix"/>
<feColorMatrix in="SourceAlpha" type="matrix" values="0 0 0 0 0 0 0 0 0 0 0 0 0 0 0 0 0 0 127 0" result="hardAlpha"/>
<feOffset dx="2" dy="2"/>
<feComposite in2="hardAlpha" operator="out"/>
<feColorMatrix type="matrix" values="0 0 0 0 0 0 0 0 0 0 0 0 0 0 0 0 0 0 0.05 0"/>
<feBlend mode="normal" in2="BackgroundImageFix" result="effect1_dropShadow_670_12"/>
<feBlend mode="normal" in="SourceGraphic" in2="effect1_dropShadow_670_12" result="shape"/>
</filter>
</defs>
</svg>
