<svg width="210" height="40" viewBox="0 0 210 40" fill="none" xmlns="http://www.w3.org/2000/svg">
<g filter="url(#filter0_d_197_3)">
<path d="M16.968 36.26C14.476 36.26 12.194 35.826 10.122 34.958C8.078 34.09 6.314 32.858 4.83 31.262C3.85 30.198 3.01 29.008 2.31 27.692C1.638 26.348 1.12 24.892 0.756 23.324C0.392 21.728 0.21 20.062 0.21 18.326C0.21 17.85 0.224 17.486 0.252 17.234C0.252 16.814 0.266 16.408 0.294 16.016C0.35 15.596 0.406 15.19 0.462 14.798C0.714 13.23 1.12 11.76 1.68 10.388C2.268 8.988 2.982 7.728 3.822 6.608C4.69 5.488 5.684 4.494 6.804 3.626C8.204 2.59 9.758 1.792 11.466 1.232C13.174 0.671998 14.994 0.391997 16.926 0.391997H16.968C18.256 0.391997 19.488 0.517998 20.664 0.769998C21.84 0.993998 22.946 1.33 23.982 1.778L18.018 12.866C17.906 12.81 17.752 12.782 17.556 12.782C17.528 12.782 17.5 12.782 17.472 12.782C17.472 12.782 17.458 12.782 17.43 12.782C16.842 12.782 16.338 13.006 15.918 13.454C15.526 13.874 15.218 14.532 14.994 15.428C14.798 16.324 14.7 17.43 14.7 18.746C14.7 20.51 14.896 21.91 15.288 22.946C15.512 23.534 15.792 23.982 16.128 24.29C16.492 24.57 16.912 24.71 17.388 24.71C17.864 24.71 18.284 24.556 18.648 24.248C19.012 23.912 19.306 23.422 19.53 22.778C19.726 22.302 19.866 21.728 19.95 21.056C20.034 20.384 20.076 19.614 20.076 18.746C20.076 17.038 19.894 15.694 19.53 14.714C19.194 13.706 18.69 13.09 18.018 12.866L17.934 12.824L18.018 12.866L19.488 11.606C21.42 9.954 22.862 8.736 23.814 7.952C24.766 7.14 26.18 5.936 28.056 4.34C29.876 5.964 31.276 7.98 32.256 10.388C33.236 12.768 33.726 15.414 33.726 18.326C33.726 21.07 33.278 23.604 32.382 25.928C31.514 28.224 30.254 30.17 28.602 31.766C28.154 32.214 27.664 32.634 27.132 33.026C26.628 33.39 26.096 33.74 25.536 34.076C24.304 34.776 22.96 35.308 21.504 35.672C20.076 36.064 18.564 36.26 16.968 36.26ZM34.44 37.1C34.44 33.656 34.44 30.226 34.44 26.81C34.44 24.402 34.44 21.994 34.44 19.586C34.44 17.99 34.44 16.394 34.44 14.798C34.44 11.662 34.44 9.338 34.44 7.826C34.44 6.314 34.44 4.032 34.44 0.979997H49.14C49.14 3.416 49.14 5.236 49.14 6.44C49.14 7.616 49.14 9.394 49.14 11.774C49.14 14.966 49.14 17.332 49.14 18.872C49.14 20.412 49.14 22.736 49.14 25.844C49.14 28.392 49.14 30.296 49.14 31.556C49.14 32.788 49.14 34.636 49.14 37.1H34.44ZM48.594 25.844C48.594 23.1 48.594 20.356 48.594 17.612C48.594 16.156 48.594 15.078 48.594 14.378C48.594 13.65 48.594 12.572 48.594 11.144H52.08V25.844H48.594ZM67.83 36.89C67.83 36.358 67.83 35.826 67.83 35.294C67.83 34.93 67.83 34.664 67.83 34.496C67.83 34.328 67.83 34.076 67.83 33.74C67.83 33.712 67.83 33.698 67.83 33.698C67.83 33.698 67.816 33.698 67.788 33.698C66.052 33.698 64.764 33.698 63.924 33.698C63.112 33.698 61.866 33.698 60.186 33.698C57.554 33.698 54.922 33.698 52.29 33.698V24.458H103.53V33.698C101.318 33.698 99.106 33.698 96.894 33.698C93.954 33.698 91 33.698 88.032 33.698C88.004 33.698 87.99 33.712 87.99 33.74C87.99 34.076 87.99 34.328 87.99 34.496C87.99 34.664 87.99 34.916 87.99 35.252C87.99 35.504 87.99 35.756 87.99 36.008C87.99 36.204 87.99 36.344 87.99 36.428C87.99 36.54 87.99 36.694 87.99 36.89H67.83ZM66.906 22.568C67.578 21.728 68.096 20.832 68.46 19.88C68.852 18.9 69.202 17.836 69.51 16.688C69.678 16.016 69.804 15.68 69.888 15.68C73.528 15.68 76.216 15.68 77.952 15.68C79.716 15.68 82.362 15.68 85.89 15.68C85.918 15.68 85.932 15.68 85.932 15.68C85.932 15.092 85.932 14.658 85.932 14.378C85.932 14.07 85.932 13.636 85.932 13.076C85.932 12.6 85.302 12.208 84.042 11.9C82.782 11.592 81.41 11.438 79.926 11.438C78.33 11.438 76.622 11.508 74.802 11.648C73.01 11.788 71.386 11.97 69.93 12.194L69.888 12.068L70.56 9.044L71.358 5.558L72.114 1.988C74.382 1.736 76.916 1.554 79.716 1.442C82.516 1.33 85.26 1.302 87.948 1.358C97.244 1.554 101.892 3.57 101.892 7.406C101.892 8.554 101.892 9.408 101.892 9.968C101.892 10.5 101.892 11.326 101.892 12.446V15.05C101.892 16.758 101.892 18.032 101.892 18.872C101.892 19.684 101.892 20.916 101.892 22.568H66.906ZM53.928 22.568C53.928 20.244 53.928 18.522 53.928 17.402C53.928 16.282 53.928 14.588 53.928 12.32C53.928 9.968 53.928 8.232 53.928 7.112C53.928 5.964 53.928 4.256 53.928 1.988H69.888C69.888 4.088 69.888 5.656 69.888 6.692C69.888 7.7 69.888 9.226 69.888 11.27C69.888 13.146 69.888 14.56 69.888 15.512C69.888 16.436 69.888 17.374 69.888 18.326C69.888 19.278 69.888 20.692 69.888 22.568H53.928ZM112.56 35.21C112.728 34.51 112.854 33.992 112.938 33.656C113.022 33.32 113.148 32.816 113.316 32.144C113.624 30.94 113.862 29.932 114.03 29.12C114.982 24.808 115.71 21.574 116.214 19.418C116.522 18.046 116.746 17.024 116.886 16.352C117.054 15.68 117.292 14.672 117.6 13.328C117.6 13.3 117.6 13.286 117.6 13.286C117.6 13.286 117.586 13.286 117.558 13.286C116.186 13.286 115.164 13.286 114.492 13.286C113.82 13.286 112.812 13.286 111.468 13.286C109.872 13.286 108.682 13.286 107.898 13.286C107.114 13.286 105.938 13.286 104.37 13.286V1.82H135.45C134.61 7.14 133.966 11.144 133.518 13.832C133.098 16.492 132.678 19.152 132.258 21.812C131.838 24.472 131.194 28.476 130.326 33.824C130.298 34.132 130.228 34.594 130.116 35.21H112.56ZM139.23 37.1C139.23 35.56 139.23 34.034 139.23 32.522C139.23 31.01 139.23 29.89 139.23 29.162C139.23 28.434 139.23 27.342 139.23 25.886C139.23 25.858 139.23 25.844 139.23 25.844C139.23 25.844 139.216 25.844 139.188 25.844H135.366V11.984H139.188C139.216 11.984 139.23 11.984 139.23 11.984C139.23 11.984 139.23 11.97 139.23 11.942C139.23 10.486 139.23 9.408 139.23 8.708C139.23 8.008 139.23 6.958 139.23 5.558C139.23 4.018 139.23 2.492 139.23 0.979997H153.93C153.93 7.084 153.93 13.188 153.93 19.292C153.93 25.228 153.93 31.164 153.93 37.1H139.23ZM156.66 34.79C156.66 31.878 156.66 28.98 156.66 26.096V23.24C156.66 18.76 156.66 14.28 156.66 9.8C156.66 7.98 156.66 6.636 156.66 5.768C156.66 4.9 156.66 3.584 156.66 1.82H173.04C173.04 4.172 173.04 5.922 173.04 7.07C173.04 8.19 173.04 9.898 173.04 12.194C173.04 15.862 173.04 19.53 173.04 23.198C173.04 23.226 173.054 23.24 173.082 23.24C175.826 23.24 177.87 23.24 179.214 23.24C180.558 23.24 182.56 23.24 185.22 23.24C186.34 23.24 187.46 23.24 188.58 23.24L186.48 34.79C182 34.79 177.52 34.79 173.04 34.79H156.66ZM189.42 37.1C189.42 33.656 189.42 30.226 189.42 26.81C189.42 24.402 189.42 21.994 189.42 19.586C189.42 17.99 189.42 16.394 189.42 14.798C189.42 11.662 189.42 9.338 189.42 7.826C189.42 6.314 189.42 4.032 189.42 0.979997H204.12C204.12 3.416 204.12 5.236 204.12 6.44C204.12 7.616 204.12 9.394 204.12 11.774C204.12 14.966 204.12 17.332 204.12 18.872C204.12 20.412 204.12 22.736 204.12 25.844C204.12 28.392 204.12 30.296 204.12 31.556C204.12 32.788 204.12 34.636 204.12 37.1H189.42ZM203.574 25.844C203.574 23.1 203.574 20.356 203.574 17.612C203.574 16.156 203.574 15.078 203.574 14.378C203.574 13.65 203.574 12.572 203.574 11.144H207.06V25.844H203.574Z" fill="white"/>
</g>
<defs>
<filter id="filter0_d_197_3" x="0.209961" y="0.391968" width="208.85" height="38.708" filterUnits="userSpaceOnUse" color-interpolation-filters="sRGB">
<feFlood flood-opacity="0" result="BackgroundImageFix"/>
<feColorMatrix in="SourceAlpha" type="matrix" values="0 0 0 0 0 0 0 0 0 0 0 0 0 0 0 0 0 0 127 0" result="hardAlpha"/>
<feOffset dx="2" dy="2"/>
<feComposite in2="hardAlpha" operator="out"/>
<feColorMatrix type="matrix" values="0 0 0 0 0 0 0 0 0 0 0 0 0 0 0 0 0 0 0.1 0"/>
<feBlend mode="normal" in2="BackgroundImageFix" result="effect1_dropShadow_197_3"/>
<feBlend mode="normal" in="SourceGraphic" in2="effect1_dropShadow_197_3" result="shape"/>
</filter>
</defs>
</svg>
