<svg width="569" height="711" viewBox="0 0 569 711" fill="none" xmlns="http://www.w3.org/2000/svg">
<path d="M284.5 616.792C356.81 550.432 410.451 490.146 445.42 435.932C480.39 381.718 497.875 333.577 497.875 291.51C497.875 226.927 477.278 174.047 436.085 132.868C394.892 91.6894 344.364 71.1 284.5 71.1C224.636 71.1 174.108 91.6894 132.915 132.868C91.7216 174.047 71.125 226.927 71.125 291.51C71.125 333.577 88.6099 381.718 123.58 435.932C158.549 490.146 212.19 550.432 284.5 616.792ZM284.5 711C189.074 629.827 117.801 554.432 70.6805 484.813C23.5602 415.194 0 350.76 0 291.51C0 202.635 28.5982 131.831 85.7945 79.0987C142.991 26.3663 209.226 0 284.5 0C359.774 0 426.009 26.3663 483.205 79.0987C540.402 131.831 569 202.635 569 291.51C569 350.76 545.44 415.194 498.32 484.813C451.199 554.432 379.926 629.827 284.5 711Z" fill="black"/>
<path d="M227.6 434.12V318.395C216.852 315.444 207.843 309.541 200.573 300.688C193.302 291.835 189.667 281.506 189.667 269.701V181.168H214.956V269.701H227.6V181.168H252.889V269.701H265.533V181.168H290.822V269.701C290.822 281.506 287.187 291.835 279.916 300.688C272.646 309.541 263.637 315.444 252.889 318.395V434.12H227.6ZM354.044 434.12V332.939H316.111V244.406C316.111 226.91 322.275 211.997 334.604 199.665C346.932 187.334 361.842 181.168 379.333 181.168V434.12H354.044Z" fill="black"/>
</svg>
