<svg width="1610" height="275" viewBox="0 0 1610 275" fill="none" xmlns="http://www.w3.org/2000/svg">
<g filter="url(#filter0_d_1068_2)">
<path d="M134.624 258.859C115.349 258.859 97.6971 255.727 81.6701 249.463C65.8596 243.198 52.2149 234.307 40.736 222.789C33.1557 215.11 26.6582 206.522 21.2437 197.024C16.0457 187.324 12.0389 176.816 9.22335 165.5C6.40778 153.982 5 141.958 5 129.43C5 125.994 5.10829 123.367 5.32487 121.549C5.32487 118.518 5.43316 115.587 5.64975 112.758C6.08291 109.727 6.51607 106.797 6.94924 103.968C8.89848 92.6518 12.0389 82.0428 16.3706 72.1411C20.9188 62.0373 26.4416 52.9439 32.9391 44.8608C39.6531 36.7778 47.3418 29.6041 56.0051 23.3398C66.8342 15.863 78.8545 10.1038 92.066 6.06229C105.278 2.02076 119.355 0 134.3 0H134.624C144.587 0 154.117 0.909342 163.213 2.72803C172.31 4.34464 180.865 6.76955 188.878 10.0028L142.746 90.0248C141.88 89.6207 140.689 89.4186 139.173 89.4186C138.956 89.4186 138.739 89.4186 138.523 89.4186C138.523 89.4186 138.415 89.4186 138.198 89.4186C133.65 89.4186 129.751 91.0352 126.503 94.2684C123.47 97.2995 121.088 102.048 119.355 108.515C117.839 114.981 117.081 122.963 117.081 132.461C117.081 145.192 118.597 155.295 121.629 162.772C123.362 167.016 125.528 170.249 128.127 172.472C130.942 174.493 134.191 175.503 137.873 175.503C141.555 175.503 144.804 174.391 147.619 172.169C150.435 169.744 152.709 166.207 154.442 161.56C155.958 158.124 157.041 153.982 157.69 149.132C158.34 144.282 158.665 138.725 158.665 132.461C158.665 120.134 157.257 110.434 154.442 103.362C151.843 96.0871 147.944 91.6414 142.746 90.0248L154.117 80.9314C169.061 69.0089 180.215 60.2186 187.579 54.5605C194.942 48.7003 205.88 40.011 220.391 28.4927C234.469 40.2131 245.298 54.7626 252.878 72.1411C260.459 89.3175 264.249 108.414 264.249 129.43C264.249 149.233 260.783 167.521 253.853 184.293C247.139 200.863 237.393 214.908 224.614 226.426C221.149 229.659 217.359 232.69 213.244 235.519C209.345 238.146 205.23 240.672 200.899 243.097C191.369 248.149 180.973 251.989 169.711 254.616C158.665 257.445 146.97 258.859 134.624 258.859ZM269.772 264.921C269.772 240.066 269.772 215.312 269.772 190.659C269.772 173.28 269.772 155.902 269.772 138.523C269.772 127.005 269.772 115.486 269.772 103.968C269.772 81.3355 269.772 64.5632 269.772 53.6512C269.772 42.7391 269.772 26.2699 269.772 4.24359H383.477C383.477 21.8242 383.477 34.9591 383.477 43.6484C383.477 52.1356 383.477 64.9674 383.477 82.1438C383.477 105.18 383.477 122.256 383.477 133.37C383.477 144.484 383.477 161.257 383.477 183.687C383.477 202.076 383.477 215.817 383.477 224.91C383.477 233.802 383.477 247.139 383.477 264.921H269.772ZM379.254 183.687C379.254 163.884 379.254 144.08 379.254 124.277C379.254 113.769 379.254 105.989 379.254 100.937C379.254 95.6829 379.254 87.903 379.254 77.5971H406.218V183.687H379.254Z" fill="white"/>
<path d="M528.046 263.406C528.046 259.566 528.046 255.727 528.046 251.888C528.046 249.261 528.046 247.341 528.046 246.128C528.046 244.916 528.046 243.097 528.046 240.672C528.046 240.47 528.046 240.369 528.046 240.369C528.046 240.369 527.937 240.369 527.721 240.369C514.293 240.369 504.33 240.369 497.833 240.369C491.552 240.369 481.914 240.369 468.919 240.369C448.56 240.369 428.201 240.369 407.843 240.369V173.684H804.188V240.369C787.078 240.369 769.968 240.369 752.858 240.369C730.117 240.369 707.267 240.369 684.31 240.369C684.093 240.369 683.985 240.47 683.985 240.672C683.985 243.097 683.985 244.916 683.985 246.128C683.985 247.341 683.985 249.16 683.985 251.584C683.985 253.403 683.985 255.222 683.985 257.041C683.985 258.455 683.985 259.465 683.985 260.072C683.985 260.88 683.985 261.991 683.985 263.406H528.046ZM520.898 160.044C526.096 153.982 530.103 147.515 532.919 140.645C535.951 133.572 538.658 125.893 541.041 117.608C542.34 112.758 543.315 110.333 543.965 110.333C572.12 110.333 592.912 110.333 606.34 110.333C619.985 110.333 640.452 110.333 667.741 110.333C667.958 110.333 668.066 110.333 668.066 110.333C668.066 106.09 668.066 102.958 668.066 100.937C668.066 98.7141 668.066 95.5819 668.066 91.5404C668.066 88.1051 663.193 85.276 653.447 83.0532C643.701 80.8304 633.088 79.7189 621.609 79.7189C609.264 79.7189 596.053 80.2241 581.975 81.2345C568.113 82.2449 555.552 83.5584 544.289 85.175L543.965 84.2656L549.162 62.4415L555.335 37.283L561.183 11.5183C578.726 9.69966 598.327 8.38616 619.985 7.57786C641.643 6.76955 662.868 6.56747 683.66 6.97162C755.565 8.38615 791.518 22.9356 791.518 50.62C791.518 58.9051 791.518 65.0684 791.518 69.11C791.518 72.9494 791.518 78.9106 791.518 86.9937V105.787C791.518 118.113 791.518 127.308 791.518 133.37C791.518 139.23 791.518 148.122 791.518 160.044H520.898ZM420.513 160.044C420.513 143.272 420.513 130.844 420.513 122.761C420.513 114.678 420.513 102.452 420.513 86.0843C420.513 69.11 420.513 56.5813 420.513 48.4982C420.513 40.2131 420.513 27.8865 420.513 11.5183H543.965C543.965 26.674 543.965 37.9903 543.965 45.4671C543.965 52.7418 543.965 63.7549 543.965 78.5065C543.965 92.0456 543.965 102.25 543.965 109.121C543.965 115.789 543.965 122.559 543.965 129.43C543.965 136.3 543.965 146.505 543.965 160.044H420.513Z" fill="white"/>
<path d="M874.036 251.281C875.335 246.229 876.31 242.491 876.959 240.066C877.609 237.641 878.584 234.004 879.883 229.154C882.266 220.465 884.107 213.19 885.406 207.33C892.77 176.21 898.401 152.87 902.3 137.311C904.682 127.409 906.415 120.033 907.498 115.183C908.797 110.333 910.638 103.059 913.02 93.3591C913.02 93.157 913.02 93.0559 913.02 93.0559C913.02 93.0559 912.912 93.0559 912.695 93.0559C902.083 93.0559 894.178 93.0559 888.98 93.0559C883.782 93.0559 875.985 93.0559 865.589 93.0559C853.244 93.0559 844.039 93.0559 837.975 93.0559C831.91 93.0559 822.814 93.0559 810.685 93.0559V10.3059H1051.09C1044.59 48.7003 1039.61 77.5971 1036.15 96.9964C1032.9 116.194 1029.65 135.391 1026.4 154.588C1023.15 173.785 1018.17 202.682 1011.46 241.279C1011.24 243.501 1010.7 246.836 1009.83 251.281H874.036ZM1080.33 264.921C1080.33 253.807 1080.33 242.794 1080.33 231.882C1080.33 220.97 1080.33 212.887 1080.33 207.633C1080.33 202.379 1080.33 194.498 1080.33 183.99C1080.33 183.788 1080.33 183.687 1080.33 183.687C1080.33 183.687 1080.22 183.687 1080.01 183.687H1050.44V83.6594H1080.01C1080.22 83.6594 1080.33 83.6594 1080.33 83.6594C1080.33 83.6594 1080.33 83.5584 1080.33 83.3563C1080.33 72.8484 1080.33 65.0684 1080.33 60.0165C1080.33 54.9646 1080.33 47.3868 1080.33 37.283C1080.33 26.1688 1080.33 15.1557 1080.33 4.24359H1194.04C1194.04 48.2961 1194.04 92.3487 1194.04 136.401C1194.04 179.241 1194.04 222.081 1194.04 264.921H1080.33Z" fill="white"/>
<path d="M1215.15 248.25C1215.15 227.234 1215.15 206.319 1215.15 185.506V164.894C1215.15 132.562 1215.15 100.23 1215.15 67.8975C1215.15 54.7626 1215.15 45.0629 1215.15 38.7986C1215.15 32.5342 1215.15 23.0367 1215.15 10.3059H1341.85C1341.85 27.2803 1341.85 39.91 1341.85 48.1951C1341.85 56.2781 1341.85 68.6048 1341.85 85.175C1341.85 111.647 1341.85 138.119 1341.85 164.591C1341.85 164.793 1341.96 164.894 1342.18 164.894C1363.4 164.894 1379.21 164.894 1389.61 164.894C1400.01 164.894 1415.49 164.894 1436.07 164.894C1444.73 164.894 1453.39 164.894 1462.06 164.894L1445.81 248.25C1411.16 248.25 1376.51 248.25 1341.85 248.25H1215.15ZM1468.55 264.921C1468.55 240.066 1468.55 215.312 1468.55 190.659C1468.55 173.28 1468.55 155.902 1468.55 138.523C1468.55 127.005 1468.55 115.486 1468.55 103.968C1468.55 81.3355 1468.55 64.5632 1468.55 53.6512C1468.55 42.7391 1468.55 26.2699 1468.55 4.24359H1582.26C1582.26 21.8242 1582.26 34.9591 1582.26 43.6484C1582.26 52.1356 1582.26 64.9674 1582.26 82.1438C1582.26 105.18 1582.26 122.256 1582.26 133.37C1582.26 144.484 1582.26 161.257 1582.26 183.687C1582.26 202.076 1582.26 215.817 1582.26 224.91C1582.26 233.802 1582.26 247.139 1582.26 264.921H1468.55ZM1578.04 183.687C1578.04 163.884 1578.04 144.08 1578.04 124.277C1578.04 113.769 1578.04 105.989 1578.04 100.937C1578.04 95.6829 1578.04 87.903 1578.04 77.5971H1605V183.687H1578.04Z" fill="white"/>
</g>
<defs>
<filter id="filter0_d_1068_2" x="4.76837e-07" y="0" width="1610" height="274.921" filterUnits="userSpaceOnUse" color-interpolation-filters="sRGB">
<feFlood flood-opacity="0" result="BackgroundImageFix"/>
<feColorMatrix in="SourceAlpha" type="matrix" values="0 0 0 0 0 0 0 0 0 0 0 0 0 0 0 0 0 0 127 0" result="hardAlpha"/>
<feOffset dy="5"/>
<feGaussianBlur stdDeviation="2.5"/>
<feComposite in2="hardAlpha" operator="out"/>
<feColorMatrix type="matrix" values="0 0 0 0 0 0 0 0 0 0 0 0 0 0 0 0 0 0 0.15 0"/>
<feBlend mode="normal" in2="BackgroundImageFix" result="effect1_dropShadow_1068_2"/>
<feBlend mode="normal" in="SourceGraphic" in2="effect1_dropShadow_1068_2" result="shape"/>
</filter>
</defs>
</svg>
