<svg width="100" height="100" viewBox="0 0 100 100" fill="none" xmlns="http://www.w3.org/2000/svg">
<rect width="100" height="100" rx="3.2" fill="#FFF3E0"/>
<path d="M52.8333 23.0672C52.4612 23.0057 52.0889 22.9564 51.7164 22.9191C51.1444 22.8619 50.5723 22.8333 50 22.8333C44.2604 22.8333 39.3958 24.8137 35.4381 28.7714C31.4726 32.737 29.5 37.8277 29.5 44C29.5 48.079 31.1923 52.6885 34.4964 57.8126C37.806 62.9452 42.8672 68.6306 49.6619 74.8683L50 75.1787L50.3381 74.8683C57.1328 68.6306 62.194 62.9452 65.5035 57.8126C68.8077 52.6885 70.5 48.079 70.5 44C70.5 43.9442 70.4975 43.8887 70.4924 43.8333H76.1501C76.1613 43.8901 76.1667 43.9455 76.1667 44C76.1667 49.4219 74.0107 55.3665 69.6275 61.8448C65.2985 68.243 58.762 75.1871 50 82.6762C41.2379 75.1871 34.7015 68.243 30.3724 61.8448C25.9893 55.3665 23.8333 49.4219 23.8333 44C23.8333 35.7844 26.4706 29.2868 31.714 24.4509C36.9862 19.5884 43.0747 17.1667 50 17.1667C50.5472 17.1667 51.0801 17.1803 51.5987 17.2076C51.9839 17.2279 52.3953 17.2716 52.8333 17.3394V23.0672ZM62.2904 18.1667L66.25 14.2071L72.8964 20.8536L73.25 21.2071L73.6036 20.8536L80.25 14.2071L84.2096 18.1667L77.5631 24.8131L77.2096 25.1667L77.5631 25.5202L84.2096 32.1667L80.25 36.1262L73.6036 29.4798L73.25 29.1262L72.8964 29.4798L66.25 36.1262L62.2904 32.1667L68.9369 25.5202L69.2904 25.1667L68.9369 24.8131L62.2904 18.1667ZM54.3548 47.6881C53.1422 48.9007 51.6997 49.5 50 49.5C48.3003 49.5 46.8578 48.9007 45.6452 47.6881C44.4327 46.4756 43.8333 45.033 43.8333 43.3333C43.8333 41.6337 44.4327 40.1911 45.6452 38.9786C46.8578 37.766 48.3003 37.1667 50 37.1667C51.6997 37.1667 53.1422 37.766 54.3548 38.9786C55.5673 40.1911 56.1667 41.6337 56.1667 43.3333C56.1667 45.033 55.5673 46.4756 54.3548 47.6881Z" fill="#EF6C00" stroke="#EF6C00"/>
</svg>
