<svg width="100" height="100" viewBox="0 0 100 100" fill="none" xmlns="http://www.w3.org/2000/svg">
<rect width="100" height="100" rx="3.2" fill="#FFF3E0"/>
<path d="M49.6619 74.8682L50 75.1786L50.3381 74.8682C57.1328 68.6304 62.194 62.9451 65.5036 57.8125C68.8077 52.6883 70.5 48.0789 70.5 43.9998C70.5 37.8275 68.5274 32.7368 64.5619 28.7713C60.6042 24.8135 55.7396 22.8332 50 22.8332C44.2604 22.8332 39.3959 24.8135 35.4381 28.7713C31.4726 32.7368 29.5 37.8275 29.5 43.9998C29.5 48.0789 31.1924 52.6883 34.4965 57.8125C37.806 62.9451 42.8672 68.6304 49.6619 74.8682ZM54.3548 47.6879C53.1423 48.9005 51.6997 49.4998 50 49.4998C48.3003 49.4998 46.8578 48.9005 45.6452 47.6879C44.4327 46.4754 43.8333 45.0328 43.8333 43.3332C43.8333 41.6335 44.4327 40.1909 45.6452 38.9784C46.8578 37.7659 48.3003 37.1665 50 37.1665C51.6997 37.1665 53.1423 37.7659 54.3548 38.9784C55.5673 40.1909 56.1667 41.6335 56.1667 43.3332C56.1667 45.0328 55.5673 46.4754 54.3548 47.6879ZM50 82.676C41.238 75.187 34.7015 68.2429 30.3725 61.8446C25.9893 55.3663 23.8333 49.4218 23.8333 43.9998C23.8333 35.7842 26.4706 29.2866 31.714 24.4507C36.9862 19.5883 43.0747 17.1665 50 17.1665C56.9254 17.1665 63.0138 19.5883 68.286 24.4507C73.5294 29.2866 76.1667 35.7842 76.1667 43.9998C76.1667 49.4218 74.0107 55.3663 69.6276 61.8446C65.2985 68.2429 58.7621 75.187 50 82.676Z" fill="#EF6C00" stroke="#EF6C00"/>
</svg>
