<svg width="88" height="105" viewBox="0 0 88 105" fill="none" xmlns="http://www.w3.org/2000/svg">
<g filter="url(#filter0_d_972_24)">
<path d="M42 93C30.5958 83.2958 22.0781 74.2823 16.4469 65.9594C10.8156 57.6365 8 49.9333 8 42.85C8 32.225 11.4177 23.7604 18.2531 17.4562C25.0885 11.1521 33.0042 8 42 8C50.9958 8 58.9115 11.1521 65.7469 17.4562C72.5823 23.7604 76 32.225 76 42.85C76 49.9333 73.1844 57.6365 67.5531 65.9594C61.9219 74.2823 53.4042 83.2958 42 93Z" fill="#FFF3E0"/>
<path d="M40.6279 64V60.2557C36.7275 59.8188 33.3811 58.2041 30.5885 55.4115C27.7958 52.6189 26.1811 49.2725 25.7443 45.3721H22V41.6279H25.7443C26.1811 37.7275 27.7958 34.3811 30.5885 31.5885C33.3811 28.7958 36.7275 27.1811 40.6279 26.7443V23H44.3721V26.7443C48.2725 27.1811 51.6189 28.7958 54.4115 31.5885C57.2041 34.3811 58.8188 37.7275 59.2557 41.6279H63V45.3721H59.2557C58.8188 49.2725 57.2041 52.6189 54.4115 55.4115C51.6189 58.2041 48.2725 59.8188 44.3721 60.2557V64H40.6279ZM42.5 56.605C46.1195 56.605 49.2086 55.3257 51.7671 52.7671C54.3257 50.2086 55.605 47.1195 55.605 43.5C55.605 39.8805 54.3257 36.7914 51.7671 34.2329C49.2086 31.6743 46.1195 30.395 42.5 30.395C38.8805 30.395 35.7914 31.6743 33.2329 34.2329C30.6743 36.7914 29.395 39.8805 29.395 43.5C29.395 47.1195 30.6743 50.2086 33.2329 52.7671C35.7914 55.3257 38.8805 56.605 42.5 56.605ZM42.5 50.9886C40.4406 50.9886 38.6777 50.2553 37.2113 48.7887C35.7447 47.3223 35.0114 45.5594 35.0114 43.5C35.0114 41.4406 35.7447 39.6777 37.2113 38.2113C38.6777 36.7447 40.4406 36.0114 42.5 36.0114C44.5594 36.0114 46.3223 36.7447 47.7887 38.2113C49.2553 39.6777 49.9886 41.4406 49.9886 43.5C49.9886 45.5594 49.2553 47.3223 47.7887 48.7887C46.3223 50.2553 44.5594 50.9886 42.5 50.9886Z" fill="#F57C00"/>
</g>
<defs>
<filter id="filter0_d_972_24" x="-8" y="-8" width="108" height="125" filterUnits="userSpaceOnUse" color-interpolation-filters="sRGB">
<feFlood flood-opacity="0" result="BackgroundImageFix"/>
<feColorMatrix in="SourceAlpha" type="matrix" values="0 0 0 0 0 0 0 0 0 0 0 0 0 0 0 0 0 0 127 0" result="hardAlpha"/>
<feOffset dx="2" dy="2"/>
<feGaussianBlur stdDeviation="5"/>
<feComposite in2="hardAlpha" operator="out"/>
<feColorMatrix type="matrix" values="0 0 0 0 0 0 0 0 0 0 0 0 0 0 0 0 0 0 0.35 0"/>
<feBlend mode="normal" in2="BackgroundImageFix" result="effect1_dropShadow_972_24"/>
<feBlend mode="normal" in="SourceGraphic" in2="effect1_dropShadow_972_24" result="shape"/>
</filter>
</defs>
</svg>
