<svg width="24" height="24" viewBox="0 0 24 24" fill="none" xmlns="http://www.w3.org/2000/svg">
<path d="M18.9304 20.1672L12.8456 14.117C12.3627 14.5011 11.8073 14.8052 11.1795 15.0293C10.5517 15.2534 9.88369 15.3654 9.1754 15.3654C7.4208 15.3654 5.93582 14.7612 4.72048 13.5527C3.50513 12.3443 2.89746 10.8678 2.89746 9.12313C2.89746 7.3785 3.50513 5.90196 4.72048 4.69352C5.93582 3.48508 7.4208 2.88086 9.1754 2.88086C10.93 2.88086 12.415 3.48508 13.6303 4.69352C14.8457 5.90196 15.4533 7.3785 15.4533 9.12313C15.4533 9.82739 15.3407 10.4916 15.1153 11.1159C14.8899 11.7401 14.5841 12.2923 14.1978 12.7725L20.2825 18.8227L18.9304 20.1672ZM9.1754 13.4447C10.3827 13.4447 11.4089 13.0246 12.254 12.1842C13.0991 11.3439 13.5217 10.3236 13.5217 9.12313C13.5217 7.9227 13.0991 6.90232 12.254 6.06202C11.4089 5.22171 10.3827 4.80156 9.1754 4.80156C7.96811 4.80156 6.94191 5.22171 6.0968 6.06202C5.25169 6.90232 4.82914 7.9227 4.82914 9.12313C4.82914 10.3236 5.25169 11.3439 6.0968 12.1842C6.94191 13.0246 7.96811 13.4447 9.1754 13.4447Z" fill="#FFAB40"/>
</svg>
