<svg width="44" height="44" viewBox="0 0 44 44" fill="none" xmlns="http://www.w3.org/2000/svg">
<path d="M12.6667 25.6668V9.3335C12.6667 8.69183 12.8951 8.14252 13.3521 7.68558C13.809 7.22863 14.3583 7.00016 15 7.00016H24.3333C24.975 7.00016 25.5243 7.22863 25.9812 7.68558C26.4382 8.14252 26.6667 8.69183 26.6667 9.3335V25.6668L19.6667 22.1668L12.6667 25.6668ZM29 21.0002V4.66683H16.1667V2.3335H29C29.6417 2.3335 30.191 2.56197 30.6479 3.01891C31.1049 3.47586 31.3333 4.02516 31.3333 4.66683V21.0002H29Z" fill="#FAFAFA"/>
<path d="M9.53945 42.0195H8.42617V31.4902H9.53945V42.0195ZM8.73672 36.1777H6.26406V35.2637H8.73672V36.1777ZM4.29531 34.4434C4.29531 35.2168 4.17031 35.9707 3.92031 36.7051C3.67031 37.4355 3.3207 38.0859 2.87148 38.6562C2.42617 39.2227 1.9125 39.6562 1.33047 39.957L0.6625 39.0898C1.18984 38.832 1.66055 38.459 2.07461 37.9707C2.49258 37.4824 2.8168 36.9316 3.04727 36.3184C3.28164 35.7012 3.39883 35.0762 3.39883 34.4434V33.0312H4.29531V34.4434ZM4.52969 34.4434C4.52969 35.0371 4.64492 35.6289 4.87539 36.2188C5.10977 36.8086 5.43398 37.3379 5.84805 37.8066C6.26211 38.2754 6.73281 38.625 7.26016 38.8555L6.60391 39.7461C6.02188 39.4609 5.50625 39.0449 5.05703 38.498C4.61172 37.9473 4.26406 37.3203 4.01406 36.6172C3.76797 35.9141 3.64492 35.1895 3.64492 34.4434V33.0312H4.52969V34.4434ZM6.86172 33.459H1.07852V32.5566H6.86172V33.459ZM14.3078 33.4414C14.3078 34.0859 14.1887 34.6914 13.9504 35.2578C13.716 35.8203 13.3762 36.3125 12.9309 36.7344C12.4855 37.1523 11.9543 37.4688 11.3371 37.6836L10.7746 36.7988C11.3098 36.6152 11.7746 36.3535 12.1691 36.0137C12.5676 35.6699 12.8742 35.2773 13.0891 34.8359C13.3039 34.3906 13.4113 33.9258 13.4113 33.4414V32.6387H14.3078V33.4414ZM14.5129 33.4355C14.5129 33.877 14.6145 34.3008 14.8176 34.707C15.0207 35.1094 15.3098 35.4648 15.6848 35.7734C16.0637 36.0781 16.5148 36.3164 17.0383 36.4883L16.5109 37.3613C15.9094 37.1621 15.3918 36.8691 14.9582 36.4824C14.5246 36.0957 14.1906 35.6406 13.9563 35.1172C13.7258 34.5938 13.6105 34.0332 13.6105 33.4355V32.6387H14.5129V33.4355ZM16.7863 33.1484H11.0969V32.2461H16.7863V33.1484ZM19.1008 37.7949H17.9934V31.4902H19.1008V37.7949ZM20.6301 35.0117H18.7902V34.0918H20.6301V35.0117ZM15.7082 38.0527C16.427 38.0527 17.048 38.1289 17.5715 38.2812C18.0988 38.4336 18.5012 38.6562 18.7785 38.9492C19.0559 39.2422 19.1945 39.5938 19.1945 40.0039C19.1945 40.4141 19.0559 40.7656 18.7785 41.0586C18.5012 41.3555 18.0988 41.582 17.5715 41.7383C17.048 41.8984 16.427 41.9785 15.7082 41.9785C14.9855 41.9785 14.3586 41.8984 13.8273 41.7383C13.3 41.582 12.8938 41.3555 12.6086 41.0586C12.3273 40.7656 12.1867 40.4141 12.1867 40.0039C12.1867 39.5938 12.3273 39.2422 12.6086 38.9492C12.8938 38.6562 13.3 38.4336 13.8273 38.2812C14.3586 38.1289 14.9855 38.0527 15.7082 38.0527ZM15.7082 38.9316C15.2121 38.9316 14.7824 38.9727 14.4191 39.0547C14.0559 39.1367 13.7785 39.2578 13.5871 39.418C13.3996 39.5781 13.3059 39.7734 13.3059 40.0039C13.3059 40.2305 13.3996 40.4277 13.5871 40.5957C13.7785 40.7598 14.0539 40.8848 14.4133 40.9707C14.7727 41.0566 15.2043 41.0996 15.7082 41.0996C16.2199 41.0996 16.6535 41.0566 17.009 40.9707C17.3684 40.8848 17.6418 40.7598 17.8293 40.5957C18.0168 40.4277 18.1105 40.2305 18.1105 40.0039C18.1105 39.7734 18.0168 39.5781 17.8293 39.418C17.6418 39.2578 17.3664 39.1367 17.0031 39.0547C16.6438 38.9727 16.2121 38.9316 15.7082 38.9316ZM31.907 35.5273H24.7762V31.9297H31.907V35.5273ZM25.866 34.6426H30.8113V32.8086H25.866V34.6426ZM33.1258 37.6543H23.5516V36.7578H33.1258V37.6543ZM28.8895 37.0742H27.7762V35.3164H28.8895V37.0742ZM31.948 41.9902H30.8348V39.5293H24.6121V38.6445H31.948V41.9902ZM43.2203 38.1348H33.6109V37.2266H43.2203V38.1348ZM42.0074 34.3848H35.9488V35.7148H34.8473V33.5645H40.8941V32.627H34.818V31.7363H42.0074V34.3848ZM42.2242 36.2363H34.8473V35.3633H42.2242V36.2363ZM38.9605 37.6953H37.8648V35.791H38.9605V37.6953ZM42.066 41.9141H40.9469V39.7578H34.6832V38.8672H42.066V41.9141Z" fill="#FAFAFA"/>
</svg>
