<svg width="88" height="105" viewBox="0 0 88 105" fill="none" xmlns="http://www.w3.org/2000/svg">
<g filter="url(#filter0_d_972_22)">
<path d="M42 93C30.5958 83.2958 22.0781 74.2823 16.4469 65.9594C10.8156 57.6365 8 49.9333 8 42.85C8 32.225 11.4177 23.7604 18.2531 17.4562C25.0885 11.1521 33.0042 8 42 8C50.9958 8 58.9115 11.1521 65.7469 17.4562C72.5823 23.7604 76 32.225 76 42.85C76 49.9333 73.1844 57.6365 67.5531 65.9594C61.9219 74.2823 53.4042 83.2958 42 93Z" fill="#FFF3E0"/>
<path d="M29 61V37.9C29 36.9925 29.3183 36.2156 29.9547 35.5694C30.5912 34.9231 31.3563 34.6 32.2501 34.6H45.25C46.1438 34.6 46.9089 34.9231 47.5453 35.5694C48.1818 36.2156 48.5 36.9925 48.5 37.9V61L38.75 56.05L29 61ZM51.7501 54.4001V31.3H33.875V28H51.7501C52.6437 28 53.4088 28.3231 54.0453 28.9694C54.6817 29.6156 55 30.3925 55 31.3V54.4001H51.7501Z" fill="#EF6C00"/>
</g>
<defs>
<filter id="filter0_d_972_22" x="-8" y="-8" width="108" height="125" filterUnits="userSpaceOnUse" color-interpolation-filters="sRGB">
<feFlood flood-opacity="0" result="BackgroundImageFix"/>
<feColorMatrix in="SourceAlpha" type="matrix" values="0 0 0 0 0 0 0 0 0 0 0 0 0 0 0 0 0 0 127 0" result="hardAlpha"/>
<feOffset dx="2" dy="2"/>
<feGaussianBlur stdDeviation="5"/>
<feComposite in2="hardAlpha" operator="out"/>
<feColorMatrix type="matrix" values="0 0 0 0 0 0 0 0 0 0 0 0 0 0 0 0 0 0 0.35 0"/>
<feBlend mode="normal" in2="BackgroundImageFix" result="effect1_dropShadow_972_22"/>
<feBlend mode="normal" in="SourceGraphic" in2="effect1_dropShadow_972_22" result="shape"/>
</filter>
</defs>
</svg>
