<svg width="60" height="60" viewBox="0 0 60 60" fill="none" xmlns="http://www.w3.org/2000/svg">
<path d="M30 55L29.375 47.5H28.75C22.8333 47.5 17.8125 45.4375 13.6875 41.3125C9.5625 37.1875 7.5 32.1667 7.5 26.25C7.5 20.3333 9.5625 15.3125 13.6875 11.1875C17.8125 7.0625 22.8333 5 28.75 5C31.7083 5 34.4688 5.55208 37.0313 6.65625C39.5938 7.76042 41.8438 9.28125 43.7813 11.2188C45.7188 13.1563 47.2396 15.4063 48.3438 17.9688C49.4479 20.5313 50 23.2917 50 26.25C50 29.375 49.4896 32.375 48.4688 35.25C47.4479 38.125 46.0521 40.7917 44.2813 43.25C42.5104 45.7083 40.4063 47.9375 37.9688 49.9375C35.5313 51.9375 32.875 53.625 30 55ZM35 45.875C37.9583 43.375 40.3646 40.4479 42.2188 37.0938C44.0729 33.7396 45 30.125 45 26.25C45 21.7083 43.4271 17.8646 40.2813 14.7188C37.1354 11.5729 33.2917 10 28.75 10C24.2083 10 20.3646 11.5729 17.2188 14.7188C14.0729 17.8646 12.5 21.7083 12.5 26.25C12.5 30.7917 14.0729 34.6354 17.2188 37.7813C20.3646 40.9271 24.2083 42.5 28.75 42.5H35V45.875ZM28.6875 39.9375C29.3958 39.9375 30 39.6875 30.5 39.1875C31 38.6875 31.25 38.0833 31.25 37.375C31.25 36.6667 31 36.0625 30.5 35.5625C30 35.0625 29.3958 34.8125 28.6875 34.8125C27.9792 34.8125 27.375 35.0625 26.875 35.5625C26.375 36.0625 26.125 36.6667 26.125 37.375C26.125 38.0833 26.375 38.6875 26.875 39.1875C27.375 39.6875 27.9792 39.9375 28.6875 39.9375ZM26.875 32H30.625C30.625 30.75 30.75 29.875 31 29.375C31.25 28.875 32.0417 27.9583 33.375 26.625C34.125 25.875 34.75 25.0625 35.25 24.1875C35.75 23.3125 36 22.375 36 21.375C36 19.25 35.2813 17.6563 33.8438 16.5938C32.4063 15.5313 30.7083 15 28.75 15C26.9167 15 25.375 15.5104 24.125 16.5313C22.875 17.5521 22 18.7917 21.5 20.25L25 21.625C25.2083 20.9167 25.6042 20.2188 26.1875 19.5313C26.7708 18.8438 27.625 18.5 28.75 18.5C29.875 18.5 30.7188 18.8125 31.2813 19.4375C31.8438 20.0625 32.125 20.75 32.125 21.5C32.125 22.2083 31.9167 22.8438 31.5 23.4063C31.0833 23.9688 30.5833 24.5417 30 25.125C28.5417 26.375 27.6563 27.3646 27.3438 28.0938C27.0313 28.8229 26.875 30.125 26.875 32Z" fill="white"/>
</svg>
