<svg width="41" height="45" viewBox="0 0 41 45" fill="none" xmlns="http://www.w3.org/2000/svg">
<path d="M9.2957 42.9902H8.17656V32.4902H9.2957V42.9902ZM7.15117 35.0566H0.828907V34.1602H7.15117V35.0566ZM4.01055 35.8242C4.51836 35.8242 4.97149 35.9277 5.36992 36.1348C5.77227 36.3418 6.08477 36.6309 6.30742 37.002C6.53399 37.373 6.64727 37.793 6.64727 38.2617C6.64727 38.7344 6.53399 39.1562 6.30742 39.5273C6.08477 39.8984 5.77227 40.1875 5.36992 40.3945C4.97149 40.6016 4.51836 40.7051 4.01055 40.7051C3.50664 40.7051 3.05156 40.6016 2.64531 40.3945C2.24297 40.1875 1.92852 39.8984 1.70195 39.5273C1.4793 39.1562 1.36797 38.7344 1.36797 38.2617C1.36797 37.793 1.4793 37.373 1.70195 37.002C1.92852 36.6309 2.24297 36.3418 2.64531 36.1348C3.05156 35.9277 3.50664 35.8242 4.01055 35.8242ZM4.01055 36.7441C3.70586 36.7441 3.43242 36.8086 3.19024 36.9375C2.95195 37.0625 2.76445 37.2402 2.62774 37.4707C2.49102 37.7012 2.42266 37.9648 2.42266 38.2617C2.42266 38.5625 2.49102 38.8262 2.62774 39.0527C2.76445 39.2793 2.95195 39.457 3.19024 39.5859C3.43242 39.7109 3.70586 39.7734 4.01055 39.7734C4.31524 39.7734 4.58672 39.7109 4.825 39.5859C5.06328 39.457 5.24883 39.2793 5.38164 39.0527C5.51445 38.8262 5.58086 38.5625 5.58086 38.2617C5.58086 37.9648 5.51445 37.7012 5.38164 37.4707C5.24883 37.2402 5.06328 37.0625 4.825 36.9375C4.58672 36.8086 4.31524 36.7441 4.01055 36.7441ZM4.54375 34.7168H3.42461V32.6074H4.54375V34.7168ZM15.8043 33.9844C15.8043 34.7188 15.607 35.4082 15.2125 36.0527C14.8219 36.6934 14.3004 37.2363 13.648 37.6816C12.9957 38.127 12.2828 38.4355 11.5094 38.6074L11.0113 37.6758C11.6793 37.543 12.3063 37.293 12.8922 36.9258C13.4781 36.5586 13.9469 36.1152 14.2984 35.5957C14.65 35.0762 14.8258 34.5391 14.8258 33.9844V33.1992H15.8043V33.9844ZM15.9977 33.9844C15.9977 34.5352 16.1754 35.0723 16.5309 35.5957C16.8863 36.1191 17.359 36.5664 17.9488 36.9375C18.5387 37.3047 19.1656 37.5508 19.8297 37.6758L19.3316 38.6074C18.566 38.4355 17.857 38.1289 17.2047 37.6875C16.5523 37.2461 16.0289 36.7031 15.6344 36.0586C15.2398 35.4141 15.0426 34.7227 15.0426 33.9844V33.1992H15.9977V33.9844ZM20.275 41.6133H10.6656V40.6934H20.275V41.6133ZM29.2621 38.7656H21.9379V37.875H29.2621V38.7656ZM30.3461 41.7305H20.7367V40.8223H30.3461V41.7305ZM26.0805 41.2266H24.973V38.3262H26.0805V41.2266ZM29.1566 34.2129H23.0746V38.2207H21.9379V33.3047H29.1566V34.2129ZM28.9223 36.457H22.7289V35.5664H28.9223V36.457ZM39.5207 43.0195H38.4133V32.4902H39.5207V43.0195ZM32.302 39.5684C33.2746 39.5723 34.1652 39.5469 34.9738 39.4922C35.7863 39.4375 36.6242 39.3418 37.4875 39.2051L37.5988 40.1191C36.7238 40.2637 35.8762 40.3633 35.0559 40.418C34.2355 40.4688 33.3176 40.4941 32.302 40.4941H31.4055V39.5684H32.302ZM36.3098 37.2773H32.5422V39.9199H31.4055V36.3867H35.1848V34.3477H31.3879V33.4395H36.3098V37.2773Z" fill="#FFAB40"/>
<path d="M21 26.25C18.125 26.25 15.6198 25.2969 13.4844 23.3906C11.349 21.4844 10.125 19.1042 9.8125 16.25H12.375C12.6667 18.4167 13.6302 20.2083 15.2656 21.625C16.901 23.0417 18.8125 23.75 21 23.75C23.4375 23.75 25.5052 22.901 27.2031 21.2031C28.901 19.5052 29.75 17.4375 29.75 15C29.75 12.5625 28.901 10.4948 27.2031 8.79688C25.5052 7.09896 23.4375 6.25 21 6.25C19.5625 6.25 18.2188 6.58333 16.9688 7.25C15.7188 7.91667 14.6667 8.83333 13.8125 10H17.25V12.5H9.75V5H12.25V7.9375C13.3125 6.60417 14.6094 5.57292 16.1406 4.84375C17.6719 4.11458 19.2917 3.75 21 3.75C22.5625 3.75 24.026 4.04688 25.3906 4.64062C26.7552 5.23438 27.9427 6.03646 28.9531 7.04688C29.9635 8.05729 30.7656 9.24479 31.3594 10.6094C31.9531 11.974 32.25 13.4375 32.25 15C32.25 16.5625 31.9531 18.026 31.3594 19.3906C30.7656 20.7552 29.9635 21.9427 28.9531 22.9531C27.9427 23.9635 26.7552 24.7656 25.3906 25.3594C24.026 25.9531 22.5625 26.25 21 26.25ZM24.5 20.25L19.75 15.5V8.75H22.25V14.5L26.25 18.5L24.5 20.25Z" fill="#FFAB40"/>
</svg>
