<svg width="88" height="105" viewBox="0 0 88 105" fill="none" xmlns="http://www.w3.org/2000/svg">
<path d="M42 93C30.5958 83.2958 22.0781 74.2823 16.4469 65.9594C10.8156 57.6365 8 49.9333 8 42.85C8 32.225 11.4177 23.7604 18.2531 17.4562C25.0885 11.1521 33.0042 8 42 8C50.9958 8 58.9115 11.1521 65.7469 17.4562C72.5823 23.7604 76 32.225 76 42.85C76 49.9333 73.1844 57.6365 67.5531 65.9594C61.9219 74.2823 53.4042 83.2958 42 93Z" fill="#FFF3E0"/>
<path d="M42.5 59C38.2833 59 34.609 57.6021 31.4771 54.8062C28.3452 52.0105 26.55 48.5195 26.0917 44.3333H29.85C30.2778 47.5112 31.691 50.1388 34.0895 52.2167C36.4881 54.2945 39.2917 55.3333 42.5 55.3333C46.075 55.3333 49.1076 54.0881 51.5979 51.5979C54.0881 49.1076 55.3333 46.075 55.3333 42.5C55.3333 38.925 54.0881 35.8924 51.5979 33.4021C49.1076 30.9118 46.075 29.6667 42.5 29.6667C40.3917 29.6667 38.4209 30.1556 36.5876 31.1333C34.7542 32.1111 33.2112 33.4556 31.9583 35.1667H37V38.8333H26V27.8333H29.6667V32.1417C31.225 30.1861 33.1271 28.6736 35.3729 27.6042C37.6188 26.5347 39.9945 26 42.5 26C44.7917 26 46.9381 26.4354 48.9395 27.3062C50.941 28.1771 52.6826 29.3535 54.1645 30.8354C55.6465 32.3174 56.8229 34.059 57.6938 36.0605C58.5645 38.0619 59 40.2083 59 42.5C59 44.7917 58.5645 46.9381 57.6938 48.9395C56.8229 50.941 55.6465 52.6826 54.1645 54.1645C52.6826 55.6465 50.941 56.8229 48.9395 57.6938C46.9381 58.5645 44.7917 59 42.5 59ZM47.6333 50.2L40.6667 43.2333V33.3333H44.3333V41.7667L50.2 47.6333L47.6333 50.2Z" fill="#EF6C00"/>
</svg>
