<svg width="88" height="105" viewBox="0 0 88 105" fill="none" xmlns="http://www.w3.org/2000/svg">
<path d="M42 93C30.5958 83.2958 22.0781 74.2823 16.4469 65.9594C10.8156 57.6365 8 49.9333 8 42.85C8 32.225 11.4177 23.7604 18.2531 17.4562C25.0885 11.1521 33.0042 8 42 8C50.9958 8 58.9115 11.1521 65.7469 17.4562C72.5823 23.7604 76 32.225 76 42.85C76 49.9333 73.1844 57.6365 67.5531 65.9594C61.9219 74.2823 53.4042 83.2958 42 93Z" fill="#FFF3E0"/>
<path d="M61 41C61 51.4934 52.4934 60 42 60C31.5066 60 23 51.4934 23 41C23 30.5066 31.5066 22 42 22C52.4934 22 61 30.5066 61 41Z" fill="#EF6C00"/>
</svg>
