<svg width="2174" height="508" viewBox="0 0 2174 508" fill="none" xmlns="http://www.w3.org/2000/svg">
<path d="M322.266 247.848C322.266 292.378 317.579 330.072 308.204 360.932C298.829 391.792 286.524 416.595 271.289 435.345C256.055 454.486 238.671 468.351 219.141 476.946C200 485.54 180.664 489.836 161.133 489.836C141.211 489.836 121.484 485.54 101.953 476.946C82.8125 468.351 65.6251 454.486 50.3907 435.345C35.1563 416.595 22.8516 391.792 13.4766 360.932C4.4922 330.072 0 292.378 0 247.848C0 203.317 4.4922 165.818 13.4766 135.35C22.8516 104.491 35.1563 79.4911 50.3907 60.3506C65.6251 41.2102 82.8125 27.3434 101.953 18.7497C121.484 10.1561 141.211 5.85928 161.133 5.85928C180.664 5.85928 200 10.1561 219.141 18.7497C238.671 27.3434 256.055 41.2102 271.289 60.3506C286.524 79.4911 298.829 104.491 308.204 135.35C317.579 165.818 322.266 203.317 322.266 247.848ZM469.923 183.396H520.899V254.879H469.923V489.836H377.93V0H469.923V183.396ZM91.4064 247.848C91.4064 281.051 93.3594 308.59 97.2658 330.464C101.172 352.338 106.446 369.915 113.086 383.197C119.727 396.088 127.149 405.268 135.352 410.736C143.555 415.815 152.149 418.353 161.133 418.353C169.727 418.353 178.125 415.815 186.328 410.736C194.532 405.268 201.758 396.088 208.008 383.197C214.649 370.307 219.922 352.923 223.828 331.05C228.125 308.784 230.274 280.854 230.274 247.262C230.274 214.059 228.125 186.521 223.828 164.646C219.922 142.771 214.649 125.389 208.008 112.498C201.758 99.6079 194.532 90.6237 186.328 85.5456C178.125 80.077 169.727 77.3426 161.133 77.3426C152.149 77.3426 143.555 80.077 135.352 85.5456C127.149 90.6237 119.727 99.8031 113.086 113.084C106.446 125.975 101.172 143.357 97.2658 165.232C93.3594 187.106 91.4064 214.645 91.4064 247.848ZM589.705 14.0623H1021.54V277.73H589.705V14.0623ZM560.994 334.565H1050.25V406.048H851.619V508H759.627V406.048H560.994V334.565ZM681.697 206.247H929.549V85.5456H681.697V206.247ZM1314.18 483.977V83.2019H1119.65V11.7186H1406.17V483.977H1314.18ZM1589.57 489.836H1497.58V263.668L1423.75 288.863V215.622L1497.58 190.427V0H1589.57V489.836ZM1762.67 11.7186V412.494H1974.78V483.977H1670.68V11.7186H1762.67ZM2123.02 183.396H2174V254.879H2123.02V489.836H2031.03V0H2123.02V183.396Z" fill="black"/>
</svg>
