<svg width="1035" height="681" viewBox="0 0 1035 681" fill="none" xmlns="http://www.w3.org/2000/svg">
<path d="M153.425 557.069C153.425 578.283 151.193 596.239 146.73 610.94C142.267 625.641 136.409 637.457 129.156 646.389C121.903 655.507 113.627 662.112 104.329 666.206C95.2163 670.301 86.0108 672.347 76.7124 672.347C67.2279 672.347 57.8364 670.301 48.538 666.206C39.4255 662.112 31.2429 655.507 23.9901 646.389C16.7372 637.457 10.8792 625.641 6.41594 610.94C2.13865 596.239 0 578.283 0 557.069C0 535.856 2.13865 517.992 6.41594 503.478C10.8792 488.777 16.7372 476.868 23.9901 467.75C31.2429 458.632 39.4255 452.026 48.538 447.932C57.8364 443.838 67.2279 441.791 76.7124 441.791C86.0108 441.791 95.2163 443.838 104.329 447.932C113.627 452.026 121.903 458.632 129.156 467.75C136.409 476.868 142.267 488.777 146.73 503.478C151.193 517.992 153.425 535.856 153.425 557.069ZM223.721 526.366H247.99V560.419H223.721V672.347H179.925V439H223.721V526.366ZM43.5168 557.069C43.5168 572.887 44.4466 586.005 46.3064 596.426C48.1661 606.846 50.6767 615.22 53.8381 621.547C56.9996 627.687 60.533 632.061 64.4384 634.666C68.3438 637.085 72.4351 638.294 76.7124 638.294C80.8037 638.294 84.802 637.085 88.7074 634.666C92.6128 632.061 96.0532 627.687 99.0287 621.547C102.19 615.406 104.701 607.125 106.56 596.705C108.606 586.098 109.629 572.793 109.629 556.79C109.629 540.973 108.606 527.854 106.56 517.434C104.701 507.013 102.19 498.732 99.0287 492.592C96.0532 486.451 92.6128 482.171 88.7074 479.752C84.802 477.147 80.8037 475.844 76.7124 475.844C72.4351 475.844 68.3438 477.147 64.4384 479.752C60.533 482.171 56.9996 486.544 53.8381 492.871C50.6767 499.012 48.1661 507.292 46.3064 517.713C44.4466 528.133 43.5168 541.252 43.5168 557.069ZM280.747 445.699H486.336V571.305H280.747V445.699ZM267.078 598.379H500.005V632.433H405.44V681H361.644V632.433H267.078V598.379ZM324.543 537.251H442.541V479.752H324.543V537.251ZM625.655 669.556V478.636H533.042V444.582H669.451V669.556H625.655ZM756.763 672.347H712.968V564.606L677.819 576.608V541.717L712.968 529.715V439H756.763V672.347ZM839.174 444.582V635.503H940.156V669.556H795.378V444.582H839.174ZM1010.73 526.366H1035V560.419H1010.73V672.347H966.935V439H1010.73V526.366Z" fill="black"/>
<path d="M521 348.735C561.921 311.215 592.276 277.129 612.066 246.476C631.855 215.824 641.75 188.605 641.75 164.82C641.75 128.305 630.094 98.4062 606.783 75.1237C583.471 51.8412 554.877 40.2 521 40.2C487.123 40.2 458.529 51.8412 435.217 75.1237C411.906 98.4062 400.25 128.305 400.25 164.82C400.25 188.605 410.145 215.824 429.934 246.476C449.724 277.129 480.079 311.215 521 348.735ZM521 402C466.998 356.105 426.664 313.476 399.998 274.114C373.333 234.751 360 198.32 360 164.82C360 114.57 376.184 74.5375 408.552 44.7225C440.919 14.9075 478.402 0 521 0C563.598 0 601.081 14.9075 633.448 44.7225C665.816 74.5375 682 114.57 682 164.82C682 198.32 668.667 234.751 642.002 274.114C615.336 313.476 575.002 356.105 521 402Z" fill="black"/>
<path d="M488.8 245.452V180.021C482.718 178.352 477.619 175.015 473.505 170.009C469.391 165.004 467.333 159.164 467.333 152.489V102.433H481.644V152.489H488.8V102.433H503.111V152.489H510.267V102.433H524.578V152.489C524.578 159.164 522.521 165.004 518.406 170.009C514.292 175.015 509.193 178.352 503.111 180.021V245.452H488.8ZM560.356 245.452V188.244H538.889V138.188C538.889 128.295 542.377 119.863 549.354 112.891C556.331 105.919 564.768 102.433 574.667 102.433V245.452H560.356Z" fill="black"/>
</svg>
