<svg width="1380" height="205" viewBox="0 0 1380 205" fill="none" xmlns="http://www.w3.org/2000/svg">
<path d="M108.75 102.25L81.75 197.5H46.75L0.25 51.75H38.75L65.5 145L91.5 51.75H126L151.75 145L178.75 51.75H217.25L170.75 197.5H135.75L108.75 102.25ZM282.695 64.25C288.529 58.75 295.779 54.5 304.445 51.5C313.279 48.3333 321.945 46.75 330.445 46.75C339.612 46.75 348.195 48.1667 356.195 51C364.195 53.8333 371.195 57.8333 377.195 63C383.195 68 387.862 74.1667 391.195 81.5C394.695 88.6667 396.445 96.6667 396.445 105.5V197.5H356.945V119C356.945 104.333 353.779 93.75 347.445 87.25C341.112 80.5833 332.445 77.25 321.445 77.25C311.945 77.25 303.612 80.5 296.445 87C289.445 93.3333 284.862 102.167 282.695 113.5V197.5H243.195V0.749989H282.695V64.25ZM556.33 51.75H590.83V197.5H557.33L552.58 178.25C549.58 182.083 545.913 185.5 541.58 188.5C537.247 191.667 532.497 194.25 527.33 196.25C522.33 198.417 517.08 200 511.58 201C506.08 202.167 500.663 202.667 495.33 202.5C485.163 202.333 475.497 200.25 466.33 196.25C457.33 192.25 449.33 186.833 442.33 180C435.497 173.167 430.08 165.083 426.08 155.75C422.08 146.25 420.08 136 420.08 125C420.08 113.667 422.163 103.25 426.33 93.75C430.497 84.0833 436.08 75.8333 443.08 69C450.08 62 458.08 56.5833 467.08 52.75C476.08 48.75 485.413 46.75 495.08 46.75C507.08 46.75 517.997 48.75 527.83 52.75C537.663 56.75 545.663 62.4167 551.83 69.75L556.33 51.75ZM503.08 172C509.08 172 514.747 170.917 520.08 168.75C525.413 166.583 529.997 163.5 533.83 159.5C537.83 155.333 540.913 150.333 543.08 144.5C545.413 138.667 546.58 132.167 546.58 125C546.58 117.5 545.413 110.833 543.08 105C540.913 99.1667 537.83 94.25 533.83 90.25C529.997 86.0833 525.413 82.9167 520.08 80.75C514.747 78.5833 509.08 77.5 503.08 77.5C497.08 77.5 491.413 78.5833 486.08 80.75C480.747 82.9167 476.08 86.0833 472.08 90.25C468.247 94.25 465.163 99.1667 462.83 105C460.663 110.833 459.58 117.5 459.58 125C459.58 132.167 460.663 138.667 462.83 144.5C465.163 150.333 468.247 155.333 472.08 159.5C476.08 163.5 480.747 166.583 486.08 168.75C491.413 170.917 497.08 172 503.08 172ZM683.484 51.75H719.984V82.25H683.484V151.25C683.484 156.25 684.734 160.167 687.234 163C689.901 165.667 693.901 167 699.234 167H722.484V197.5H682.734C677.401 197.5 672.318 196.667 667.484 195C662.818 193.333 658.734 190.917 655.234 187.75C651.734 184.583 648.984 180.667 646.984 176C644.984 171.5 643.984 166.333 643.984 160.5V82.25H614.484V51.75H643.984V0.749989H683.484V51.75ZM779.934 149.5C783.434 157.5 788.767 163.667 795.934 168C803.1 172.333 812.017 174.5 822.684 174.5C832.684 174.5 841.767 172.833 849.934 169.5C858.267 166.167 865.767 160.5 872.434 152.5L897.684 171.75C889.017 182.25 878.6 190.417 866.434 196.25C854.267 202.083 841.017 205 826.684 205C814.35 205 802.85 203.083 792.184 199.25C781.517 195.583 772.184 190.25 764.184 183.25C756.35 176.417 750.1 168.083 745.434 158.25C740.934 148.25 738.684 137.083 738.684 124.75C738.684 112.75 740.85 101.833 745.184 92C749.517 82 755.434 73.5 762.934 66.5C770.434 59.3333 779.267 53.8333 789.434 50C799.767 46 810.934 44 822.934 44C834.6 44 845.267 45.9167 854.934 49.75C864.767 53.5833 873.267 58.9167 880.434 65.75C887.6 72.4167 893.267 80.5 897.434 90C901.767 99.3333 904.184 109.583 904.684 120.75L779.934 149.5ZM824.684 74.5C809.85 74.5 798.1 78.6667 789.434 87C780.934 95.1667 776.267 106.333 775.434 120.5L865.434 99C861.1 90.3333 855.434 84.0833 848.434 80.25C841.434 76.4167 833.517 74.5 824.684 74.5ZM1013.87 197.5H973.865L912.115 51.75H952.365L993.865 151.5L1035.37 51.75H1075.62L1013.87 197.5ZM1123.2 149.5C1126.7 157.5 1132.03 163.667 1139.2 168C1146.36 172.333 1155.28 174.5 1165.95 174.5C1175.95 174.5 1185.03 172.833 1193.2 169.5C1201.53 166.167 1209.03 160.5 1215.7 152.5L1240.95 171.75C1232.28 182.25 1221.86 190.417 1209.7 196.25C1197.53 202.083 1184.28 205 1169.95 205C1157.61 205 1146.11 203.083 1135.45 199.25C1124.78 195.583 1115.45 190.25 1107.45 183.25C1099.61 176.417 1093.36 168.083 1088.7 158.25C1084.2 148.25 1081.95 137.083 1081.95 124.75C1081.95 112.75 1084.11 101.833 1088.45 92C1092.78 82 1098.7 73.5 1106.2 66.5C1113.7 59.3333 1122.53 53.8333 1132.7 50C1143.03 46 1154.2 44 1166.2 44C1177.86 44 1188.53 45.9167 1198.2 49.75C1208.03 53.5833 1216.53 58.9167 1223.7 65.75C1230.86 72.4167 1236.53 80.5 1240.7 90C1245.03 99.3333 1247.45 109.583 1247.95 120.75L1123.2 149.5ZM1167.95 74.5C1153.11 74.5 1141.36 78.6667 1132.7 87C1124.2 95.1667 1119.53 106.333 1118.7 120.5L1208.7 99C1204.36 90.3333 1198.7 84.0833 1191.7 80.25C1184.7 76.4167 1176.78 74.5 1167.95 74.5ZM1312.45 68C1315.95 62.8333 1320.78 58.8333 1326.95 56C1333.11 53.1667 1340.36 51.75 1348.7 51.75H1379.7L1373.45 82.25H1342.2C1338.36 82.25 1334.7 83.25 1331.2 85.25C1327.86 87.0833 1324.86 89.6667 1322.2 93C1319.7 96.1667 1317.7 99.8333 1316.2 104C1314.7 108.167 1313.95 112.5 1313.95 117V197.5H1274.45V51.75H1308.95L1312.45 68Z" fill="black"/>
</svg>
