<svg width="44" height="44" viewBox="0 0 44 44" fill="none" xmlns="http://www.w3.org/2000/svg">
<path d="M31.5 26.1007L23.625 18.2704C23 18.7676 22.2812 19.1612 21.4688 19.4512C20.6562 19.7412 19.7917 19.8862 18.875 19.8862C16.6042 19.8862 14.6823 19.1042 13.1094 17.5402C11.5365 15.9762 10.75 14.0653 10.75 11.8074C10.75 9.54942 11.5365 7.63846 13.1094 6.07449C14.6823 4.51051 16.6042 3.72852 18.875 3.72852C21.1458 3.72852 23.0677 4.51051 24.6406 6.07449C26.2135 7.63846 27 9.54942 27 11.8074C27 12.7188 26.8542 13.5785 26.5625 14.3864C26.2708 15.1942 25.875 15.9089 25.375 16.5304L33.25 24.3606L31.5 26.1007ZM18.875 17.4004C20.4375 17.4004 21.7656 16.8566 22.8594 15.7691C23.9531 14.6816 24.5 13.361 24.5 11.8074C24.5 10.2537 23.9531 8.93315 22.8594 7.84561C21.7656 6.75808 20.4375 6.21431 18.875 6.21431C17.3125 6.21431 15.9844 6.75808 14.8906 7.84561C13.7969 8.93315 13.25 10.2537 13.25 11.8074C13.25 13.361 13.7969 14.6816 14.8906 15.7691C15.9844 16.8566 17.3125 17.4004 18.875 17.4004Z" fill="#FAFAFA"/>
<path d="M4.43008 34.5898C4.43008 35.3438 4.29922 36.082 4.0375 36.8047C3.77578 37.5234 3.41641 38.1641 2.95938 38.7266C2.50234 39.2852 1.98477 39.7051 1.40664 39.9863L0.750391 39.1133C1.26992 38.8633 1.74063 38.498 2.1625 38.0176C2.58438 37.5332 2.91445 36.9922 3.15273 36.3945C3.39492 35.793 3.51602 35.1914 3.51602 34.5898V33.0312H4.43008V34.5898ZM4.64102 34.5898C4.64102 35.168 4.7582 35.7422 4.99258 36.3125C5.23086 36.8828 5.56094 37.3906 5.98281 37.8359C6.40859 38.2812 6.88711 38.6191 7.41836 38.8496L6.80313 39.7227C6.20938 39.457 5.68008 39.0625 5.21523 38.5391C4.7543 38.0156 4.39492 37.4121 4.13711 36.7285C3.8832 36.0449 3.75625 35.332 3.75625 34.5898V33.0312H4.64102V34.5898ZM7.04336 33.4707H1.11953V32.5566H7.04336V33.4707ZM9.48086 41.9902H8.36172V31.4902H9.48086V41.9902ZM18.8313 33.9043H15.6438V32.9902H18.8313V33.9043ZM18.8313 36.2363H15.6438V35.3281H18.8313V36.2363ZM19.6047 41.9902H18.4914V39.1133H12.4914V38.2285H19.6047V41.9902ZM19.6047 37.6895H18.4914V31.4902H19.6047V37.6895ZM13.757 32.082C14.2727 32.0781 14.7375 32.1855 15.1516 32.4043C15.5695 32.6191 15.8977 32.9199 16.1359 33.3066C16.3742 33.6895 16.4934 34.123 16.4934 34.6074C16.4934 35.0996 16.3742 35.5391 16.1359 35.9258C15.8977 36.3125 15.5695 36.6152 15.1516 36.834C14.7375 37.0488 14.2727 37.1562 13.757 37.1562C13.2336 37.1562 12.7629 37.0488 12.3449 36.834C11.9309 36.6152 11.6027 36.3125 11.3605 35.9258C11.1223 35.5391 11.0031 35.0996 11.0031 34.6074C11.0031 34.123 11.1223 33.6895 11.3605 33.3066C11.6027 32.9199 11.9309 32.6191 12.3449 32.4043C12.7629 32.1855 13.2336 32.0781 13.757 32.082ZM13.757 33.0254C13.4289 33.0254 13.1359 33.0918 12.8781 33.2246C12.6242 33.3535 12.425 33.5391 12.2805 33.7812C12.1359 34.0195 12.0637 34.2949 12.0637 34.6074C12.0637 34.9238 12.1359 35.2051 12.2805 35.4512C12.425 35.6973 12.6242 35.8867 12.8781 36.0195C13.1359 36.1523 13.4289 36.2188 13.757 36.2188C14.0695 36.2188 14.3527 36.1504 14.6066 36.0137C14.8645 35.877 15.0656 35.6875 15.2102 35.4453C15.3547 35.1992 15.427 34.9199 15.427 34.6074C15.427 34.2949 15.3547 34.0195 15.2102 33.7812C15.0656 33.5391 14.8645 33.3535 14.6066 33.2246C14.3527 33.0918 14.0695 33.0254 13.757 33.0254ZM28.9832 32.1523C28.9832 33.0312 28.7879 33.8281 28.3973 34.543C28.0066 35.2539 27.448 35.8652 26.7215 36.377C25.9949 36.8887 25.1219 37.2891 24.1023 37.5781L23.6512 36.7051C24.5262 36.4629 25.2742 36.1426 25.8953 35.7441C26.5164 35.3418 26.993 34.8789 27.325 34.3555C27.657 33.832 27.823 33.2656 27.823 32.6562V32.1523H28.9832ZM28.5672 33.0547H24.202V32.1523H28.5672V33.0547ZM32.3055 37.4492H31.1922V31.502H32.3055V37.4492ZM31.3738 35.0586H29.0184V34.1387H31.3738V35.0586ZM32.3055 41.8555H25.4441V37.8945H32.3055V41.8555ZM26.5223 40.9648H31.2039V38.7734H26.5223V40.9648ZM36.6402 33.4707C36.6402 34.0293 36.5445 34.5742 36.3531 35.1055C36.1617 35.6367 35.8805 36.1133 35.5094 36.5352C35.1422 36.9531 34.6988 37.2734 34.1793 37.4961L33.5816 36.6406C34.0387 36.4414 34.4313 36.1699 34.7594 35.8262C35.0875 35.4785 35.3355 35.1016 35.5035 34.6953C35.6754 34.2852 35.7613 33.877 35.7613 33.4707V32.1289H36.6402V33.4707ZM36.8277 33.4707C36.8277 33.8652 36.9078 34.2539 37.068 34.6367C37.232 35.0156 37.4703 35.3574 37.7828 35.6621C38.0953 35.9629 38.4742 36.2012 38.9195 36.377L38.3219 37.2324C37.818 37.0254 37.3883 36.7305 37.0328 36.3477C36.6773 35.9648 36.4078 35.5273 36.2242 35.0352C36.0445 34.5391 35.9547 34.0176 35.9547 33.4707V32.1289H36.8277V33.4707ZM42.5758 37.8535H41.5152V31.502H42.5758V37.8535ZM41.8375 35.1055H39.9273V34.1797H41.8375V35.1055ZM40.2965 37.7949H39.2594V31.6836H40.2965V37.7949ZM42.5758 41.9902H41.4801V39.3008H35.4391V38.3926H42.5758V41.9902Z" fill="#FAFAFA"/>
</svg>
