<svg width="37" height="44" viewBox="0 0 37 44" fill="none" xmlns="http://www.w3.org/2000/svg">
<path d="M16.2083 43.0104C11.5868 42.4375 7.75777 40.4228 4.72131 36.9662C1.68486 33.5096 0.166626 29.4514 0.166626 24.7917C0.166626 22.2709 0.663154 19.8551 1.65621 17.5443C2.64927 15.2335 4.06246 13.2188 5.89579 11.5L9.16142 14.7656C7.71003 16.0643 6.61194 17.5729 5.86715 19.2917C5.12236 21.0104 4.74996 22.8438 4.74996 24.7917C4.74996 28.1528 5.8194 31.1224 7.95829 33.7005C10.0972 36.2787 12.8472 37.8542 16.2083 38.4271V43.0104ZM20.7916 43.0104V38.4271C24.1145 37.816 26.855 36.2309 29.013 33.6719C31.171 31.1129 32.25 28.1528 32.25 24.7917C32.25 20.9722 30.9132 17.7257 28.2395 15.0521C25.5659 12.3785 22.3194 11.0417 18.5 11.0417H18.3281L20.8489 13.5625L17.6406 16.7709L9.61975 8.75002L17.6406 0.729187L20.8489 3.93752L18.3281 6.45835H18.5C23.618 6.45835 27.9531 8.2344 31.5052 11.7865C35.0573 15.3386 36.8333 19.6736 36.8333 24.7917C36.8333 29.4132 35.3151 33.4523 32.2786 36.9089C29.2422 40.3655 25.4132 42.3993 20.7916 43.0104Z" fill="#C6C6C6"/>
</svg>
