<svg width="929" height="218" viewBox="0 0 929 218" fill="none" xmlns="http://www.w3.org/2000/svg">
<path d="M138.25 106.5C138.25 125.5 136.25 141.583 132.25 154.75C128.25 167.917 123 178.5 116.5 186.5C110 194.667 102.583 200.583 94.25 204.25C86.0833 207.917 77.8333 209.75 69.5 209.75C61 209.75 52.5833 207.917 44.25 204.25C36.0833 200.583 28.75 194.667 22.25 186.5C15.75 178.5 10.5 167.917 6.5 154.75C2.66667 141.583 0.75 125.5 0.75 106.5C0.75 87.5 2.66667 71.5 6.5 58.5C10.5 45.3333 15.75 34.6667 22.25 26.5C28.75 18.3333 36.0833 12.4167 44.25 8.75C52.5833 5.08333 61 3.24999 69.5 3.24999C77.8333 3.24999 86.0833 5.08333 94.25 8.75C102.583 12.4167 110 18.3333 116.5 26.5C123 34.6667 128.25 45.3333 132.25 58.5C136.25 71.5 138.25 87.5 138.25 106.5ZM201.25 79H223V109.5H201.25V209.75H162V0.749994H201.25V79ZM39.75 106.5C39.75 120.667 40.5833 132.417 42.25 141.75C43.9167 151.083 46.1667 158.583 49 164.25C51.8333 169.75 55 173.667 58.5 176C62 178.167 65.6667 179.25 69.5 179.25C73.1667 179.25 76.75 178.167 80.25 176C83.75 173.667 86.8333 169.75 89.5 164.25C92.3333 158.75 94.5833 151.333 96.25 142C98.0833 132.5 99 120.583 99 106.25C99 92.0833 98.0833 80.3333 96.25 71C94.5833 61.6667 92.3333 54.25 89.5 48.75C86.8333 43.25 83.75 39.4167 80.25 37.25C76.75 34.9167 73.1667 33.75 69.5 33.75C65.6667 33.75 62 34.9167 58.5 37.25C55 39.4167 51.8333 43.3333 49 49C46.1667 54.5 43.9167 61.9167 42.25 71.25C40.5833 80.5833 39.75 92.3333 39.75 106.5ZM252.357 6.74999H436.607V119.25H252.357V6.74999ZM240.107 143.5H448.857V174H364.107V217.5H324.857V174H240.107V143.5ZM291.607 88.75H397.357V37.25H291.607V88.75ZM561.465 207.25V36.25H478.465V5.74999H600.715V207.25H561.465ZM678.965 209.75H639.715V113.25L608.215 124V92.75L639.715 82V0.749994H678.965V209.75ZM752.822 5.74999V176.75H843.322V207.25H713.572V5.74999H752.822ZM906.572 79H928.322V109.5H906.572V209.75H867.322V0.749994H906.572V79Z" fill="black"/>
</svg>
